<?xml version="1.0" encoding="utf-8"?>
<!-- Generator: Adobe Illustrator 21.1.0, SVG Export Plug-In . SVG Version: 6.00 Build 0)  -->
<svg version="1.1" id="Layer_1" xmlns="http://www.w3.org/2000/svg" xmlns:xlink="http://www.w3.org/1999/xlink" x="0px" y="0px"
	 viewBox="0 0 50 50" style="enable-background:new 0 0 50 50;" xml:space="preserve">
<style type="text/css">
	.st0{fill:none;stroke:#2C3841;stroke-width:0.9251;stroke-miterlimit:10;}
</style>
<path class="st0" d="M11.7,26.5h6.5v-5.7h-6.5V26.5z M11.7,35.2h6.5v-5.7h-6.5V35.2z M11.7,43.6h6.5v-5.7h-6.5V43.6z M21.7,43.6h6.5
	v-5.7h-6.5V43.6z M21.7,35.2h6.5v-5.7h-6.5V35.2z M11.6,18h26.8V6.2H11.6V18z M36.5,1.2H13.5c-3.9,0-7.1,3.2-7.1,7.1v33.6
	c0,3.9,3.2,7.1,7.1,7.1h22.9c3.9,0,7.1-3.2,7.1-7.1V8.3C43.6,4.4,40.4,1.2,36.5,1.2z M21.8,26.5h6.5v-5.7h-6.5V26.5z M31.6,26.5h6.5
	v-5.7h-6.5V26.5z M31.6,43.6h6.6V29.5h-6.6V43.6z"/>
</svg>
