<?xml version="1.0" encoding="utf-8"?>
<!-- Generator: Adobe Illustrator 21.1.0, SVG Export Plug-In . SVG Version: 6.00 Build 0)  -->
<svg version="1.1" id="Layer_1" xmlns="http://www.w3.org/2000/svg" xmlns:xlink="http://www.w3.org/1999/xlink" x="0px" y="0px"
	 viewBox="0 0 33 33" style="enable-background:new 0 0 33 33;" xml:space="preserve">
<style type="text/css">
	.st0{fill:#2c3841;}
</style>
<g>
	<g>
		<path class="st0" d="M14.6,2.1V31H1V2.1H14.6 M15.6,1.1H0V32h15.6V1.1L15.6,1.1z"/>
	</g>
	<g>
		<path class="st0" d="M26.8,9.2L32,15v15.9H15.6V9.2H26.8 M27.2,8.2H14.6v23.7H33V14.6L27.2,8.2L27.2,8.2z"/>
	</g>
	<g>
		<path class="st0" d="M25.1,15.1v2.7h-2.7v-2.7L25.1,15.1 M25.6,14.6h-3.7v3.7h3.7V14.6L25.6,14.6z"/>
	</g>
	<g>
		<path class="st0" d="M25.1,22.6v2.7h-2.7v-2.7H25.1 M25.6,22.1h-3.7v3.7h3.7V22.1L25.6,22.1z"/>
	</g>
	<g>
		<path class="st0" d="M9.1,7.5v2.7H6.4V7.5H9.1 M9.6,7H5.9v3.7h3.7V7L9.6,7z"/>
	</g>
	<g>
		<path class="st0" d="M9.1,15.1v2.7H6.4v-2.7L9.1,15.1 M9.6,14.6H5.9v3.7h3.7V14.6L9.6,14.6z"/>
	</g>
	<g>
		<path class="st0" d="M9.1,22.7v2.7H6.4v-2.7H9.1 M9.6,22.2H5.9V26h3.7V22.2L9.6,22.2z"/>
	</g>
</g>
</svg>
