<?xml version="1.0" encoding="utf-8"?>
<!-- Generator: Adobe Illustrator 16.0.4, SVG Export Plug-In . SVG Version: 6.00 Build 0)  -->
<!DOCTYPE svg PUBLIC "-//W3C//DTD SVG 1.1//EN" "http://www.w3.org/Graphics/SVG/1.1/DTD/svg11.dtd">
<svg version="1.1" id="Layer_1" xmlns="http://www.w3.org/2000/svg" xmlns:xlink="http://www.w3.org/1999/xlink" x="0px" y="0px"
	 width="57.349px" height="21.475px" viewBox="0 0 57.349 21.475" enable-background="new 0 0 57.349 21.475" xml:space="preserve">
<title>KB+</title>
<desc>Created with Sketch.</desc>
<g id="_x2D_">
	<g id="sidebar_x2F_Menu" transform="translate(-23.000000, -25.000000)">
		<g id="Sidebar-Menu-Copy">
			<g id="logo" transform="translate(22.000000, 15.593750)">
				<g enable-background="new    ">
					<path fill="#FFFFFF" d="M1,30.881V9.406h4.336v9.536l8.76-9.536h5.83l-8.086,8.364l8.525,13.11h-5.61L8.852,20.803
						l-3.516,3.589v6.489H1z"/>
					<path fill="#FFFFFF" d="M22.621,9.406h8.584c1.699,0,2.967,0.071,3.801,0.213c0.836,0.142,1.582,0.437,2.242,0.886
						c0.658,0.449,1.208,1.048,1.647,1.794c0.439,0.748,0.659,1.585,0.659,2.513c0,1.006-0.271,1.929-0.812,2.769
						c-0.543,0.84-1.277,1.47-2.205,1.89c1.309,0.381,2.314,1.03,3.018,1.948s1.055,1.997,1.055,3.237
						c0,0.977-0.227,1.927-0.682,2.849c-0.453,0.924-1.074,1.661-1.859,2.213c-0.787,0.552-1.756,0.891-2.908,1.018
						c-0.723,0.078-2.466,0.127-5.229,0.146h-7.31V9.406z M26.957,12.98v4.966h2.842c1.689,0,2.739-0.024,3.149-0.073
						c0.742-0.088,1.325-0.344,1.751-0.77c0.424-0.424,0.637-0.983,0.637-1.677c0-0.664-0.184-1.203-0.549-1.618
						c-0.367-0.415-0.911-0.667-1.634-0.755c-0.43-0.049-1.665-0.073-3.706-0.073H26.957z M26.957,21.521v5.742h4.014
						c1.562,0,2.554-0.044,2.974-0.132c0.645-0.117,1.169-0.402,1.575-0.857c0.404-0.453,0.607-1.062,0.607-1.823
						c0-0.645-0.156-1.191-0.469-1.641s-0.765-0.776-1.355-0.981s-1.872-0.308-3.845-0.308H26.957z"/>
					<path fill="#FFFFFF" d="M48.959,27.79v-5.581h-5.625v-3.853h5.625v-5.581h3.75v5.581h5.64v3.853h-5.64v5.581H48.959z"/>
				</g>
			</g>
		</g>
	</g>
</g>
</svg>
