<?xml version="1.0" encoding="utf-8"?>
<!-- Generator: Adobe Illustrator 21.1.0, SVG Export Plug-In . SVG Version: 6.00 Build 0)  -->
<svg version="1.1" id="Layer_1" xmlns="http://www.w3.org/2000/svg" xmlns:xlink="http://www.w3.org/1999/xlink" x="0px" y="0px"
	 viewBox="0 0 33 33" style="enable-background:new 0 0 33 33;" xml:space="preserve">
<style type="text/css">
	.st0{fill:none;stroke:#2c3841;stroke-miterlimit:10;}
	.st1{fill:none;stroke:#2c3841;stroke-linecap:round;stroke-linejoin:round;stroke-miterlimit:10;}
</style>
<g>
	<path class="st0" d="M3.1,8.4H10c0.6,0,1.1-0.5,1.1-1.1V0.5"/>
	<g>
		<path class="st1" d="M20.1,21v10.6c0,0.4,0.2,0.7,0.4,0.9l3-3.2l3,3.2c0.3-0.2,0.4-0.6,0.4-1V21"/>
		<path class="st0" d="M29.8,15l-1.2-1.2v-1.6c0-0.7-0.6-1.3-1.3-1.3h-1.6l-1.2-1.2c-0.5-0.5-1.3-0.5-1.8,0l-1.2,1.2h-1.6
			c-0.7,0-1.3,0.6-1.3,1.3v1.6L17.4,15c-0.5,0.5-0.5,1.3,0,1.8l1.2,1.2v1.6c0,0.7,0.6,1.3,1.3,1.3h1.6l1.2,1.2
			c0.5,0.5,1.3,0.5,1.8,0l1.2-1.2h1.6c0.7,0,1.3-0.6,1.3-1.3V18l1.2-1.2C30.3,16.3,30.3,15.5,29.8,15z"/>
	</g>
	<path class="st0" d="M23.6,9.4V1.6c0-0.6-0.5-1.1-1.1-1.1H10.8l-8,7.9v19.5c0,0.6,0.5,1.1,1.1,1.1H20"/>
</g>
</svg>
