<?xml version="1.0" encoding="utf-8"?>
<!-- Generator: Adobe Illustrator 16.0.4, SVG Export Plug-In . SVG Version: 6.00 Build 0)  -->
<!DOCTYPE svg PUBLIC "-//W3C//DTD SVG 1.1//EN" "http://www.w3.org/Graphics/SVG/1.1/DTD/svg11.dtd">
<svg version="1.1" id="Layer_1" xmlns="http://www.w3.org/2000/svg" xmlns:xlink="http://www.w3.org/1999/xlink" x="0px" y="0px"
	 width="64px" height="64px" viewBox="0 0 64 64" enable-background="new 0 0 64 64" xml:space="preserve">
<path fill="#FFFFFF" d="M63.758,31.717l-7.033-8.207l7.033-8.208c0.197-0.227,0.278-0.528,0.227-0.825
	c-0.054-0.297-0.235-0.553-0.499-0.697L40.71,1.126c-0.387-0.216-0.872-0.148-1.189,0.164l-6.916,6.858l-6.856-6.854
	c-0.321-0.322-0.816-0.387-1.207-0.16L0.499,15.053c-0.279,0.162-0.465,0.45-0.495,0.773c-0.029,0.324,0.099,0.642,0.346,0.851
	l8.146,6.983l-7.031,9.373c-0.173,0.231-0.238,0.525-0.178,0.81c0.059,0.281,0.238,0.523,0.493,0.663l7.004,3.892
	c-0.032,0.097-0.061,0.19-0.061,0.297v9.251c0,1.221,0.657,2.361,1.718,2.976l20.348,11.747c0.549,0.315,1.161,0.477,1.774,0.477
	c0.005,0,0.014-0.004,0.019-0.004c0.007,0,0.011,0.004,0.016,0.004c0.011,0,0.021-0.004,0.029-0.004
	c0.594-0.014,1.183-0.167,1.714-0.473L54.63,50.954c1.096-0.634,1.777-1.814,1.777-3.081V37.569l7.114-4.348
	c0.25-0.153,0.421-0.409,0.466-0.697C64.034,32.234,63.951,31.939,63.758,31.717 M31.601,34.445L11.842,23.469l19.759-12.073V34.445
	z M33.601,11.355l19.822,12.114L33.601,34.483V11.355z M40.396,3.24l21.048,11.691l-6.239,7.283L34.203,9.38L40.396,3.24z
	 M24.878,3.251l6.149,6.151L9.957,22.277l-7.238-6.199L24.878,3.251z M10.135,24.808l20.967,11.648l-6.341,8.529L3.754,33.316
	L10.135,24.808z M11.444,49.188c-0.443-0.256-0.72-0.73-0.72-1.243v-8.469l13.833,7.684c0.152,0.085,0.319,0.126,0.483,0.126
	c0.308,0,0.609-0.142,0.803-0.403l5.758-7.741v21.685L11.444,49.188z M54.407,47.873c0,0.556-0.299,1.072-0.777,1.354L33.601,60.788
	V39.119l5.825,7.767c0.193,0.261,0.495,0.4,0.801,0.4c0.178,0,0.357-0.048,0.52-0.146l13.661-8.349V47.873z M40.48,44.958
	l-6.36-8.478l21.062-11.7l6.295,7.346L40.48,44.958z"/>
</svg>
