<?xml version="1.0" encoding="utf-8"?>
<!-- Generator: Adobe Illustrator 21.0.2, SVG Export Plug-In . SVG Version: 6.00 Build 0)  -->
<svg version="1.1" id="Layer_1" xmlns="http://www.w3.org/2000/svg" xmlns:xlink="http://www.w3.org/1999/xlink" x="0px" y="0px"
	 viewBox="0 0 64 64" style="enable-background:new 0 0 64 64;" xml:space="preserve">
<style type="text/css">
	.st0{fill:none;stroke:#FFFFFF;stroke-width:2.9312;stroke-miterlimit:10;}
	.st1{fill:none;stroke:#FFFFFF;stroke-width:0.9771;stroke-linecap:round;stroke-miterlimit:10;}
	.st2{fill:none;stroke:#FFFFFF;stroke-width:2.4426;stroke-miterlimit:10;}
	.st3{fill:none;stroke:#FFFFFF;stroke-width:2.1495;stroke-miterlimit:10;}
</style>
<g>
	<path class="st0" d="M39.4,62.1H12.6c-2.7,0-4.9-2.2-4.9-4.9V18c0-2.7,2.2-4.9,4.9-4.9h26.7c2.7,0,4.9,2.2,4.9,4.9v39.2
		C44.3,59.9,42.1,62.1,39.4,62.1z"/>
	<line class="st1" x1="13.6" y1="23.5" x2="38.4" y2="23.5"/>
	<line class="st1" x1="13.6" y1="30.3" x2="38.4" y2="30.3"/>
	<line class="st1" x1="13.6" y1="37.2" x2="38.4" y2="37.2"/>
	<line class="st1" x1="13.6" y1="44" x2="38.4" y2="44"/>
	<path class="st2" d="M13.6,13.1v-1.3c0-2.7,2.2-4.9,4.9-4.9h26.7c2.7,0,4.9,2.2,4.9,4.9V51c0,2.7-2.2,4.9-4.9,4.9"/>
	<path class="st3" d="M19.1,7.7V6.4c0-2.7,2.2-4.9,4.9-4.9h26.7c2.7,0,4.9,2.2,4.9,4.9v39.2c0,2.7-2.2,4.9-4.9,4.9"/>
</g>
</svg>
