<?xml version="1.0" encoding="UTF-8" standalone="no"?>
<!-- Generator: Adobe Illustrator 21.1.0, SVG Export Plug-In . SVG Version: 6.00 Build 0)  -->

<svg
   xmlns:dc="http://purl.org/dc/elements/1.1/"
   xmlns:cc="http://creativecommons.org/ns#"
   xmlns:rdf="http://www.w3.org/1999/02/22-rdf-syntax-ns#"
   xmlns:svg="http://www.w3.org/2000/svg"
   xmlns="http://www.w3.org/2000/svg"
   xmlns:sodipodi="http://sodipodi.sourceforge.net/DTD/sodipodi-0.dtd"
   xmlns:inkscape="http://www.inkscape.org/namespaces/inkscape"
   version="1.1"
   id="Layer_1"
   x="0px"
   y="0px"
   viewBox="0 0 50 50"
   style="enable-background:new 0 0 50 50;"
   xml:space="preserve"
   sodipodi:docname="menu_finance.svg"
   inkscape:version="0.92.2 (unknown)"><metadata
     id="metadata11"><rdf:RDF><cc:Work
         rdf:about=""><dc:format>image/svg+xml</dc:format><dc:type
           rdf:resource="http://purl.org/dc/dcmitype/StillImage" /></cc:Work></rdf:RDF></metadata><defs
     id="defs9" /><sodipodi:namedview
     pagecolor="#ffffff"
     bordercolor="#666666"
     borderopacity="1"
     objecttolerance="10"
     gridtolerance="10"
     guidetolerance="10"
     inkscape:pageopacity="0"
     inkscape:pageshadow="2"
     inkscape:window-width="1067"
     inkscape:window-height="735"
     id="namedview7"
     showgrid="false"
     inkscape:zoom="4.72"
     inkscape:cx="19.067797"
     inkscape:cy="25"
     inkscape:window-x="748"
     inkscape:window-y="186"
     inkscape:window-maximized="0"
     inkscape:current-layer="Layer_1" /><style
     type="text/css"
     id="style2">
	.st0{fill:none;stroke:#2C3841;stroke-width:0.9251;stroke-miterlimit:10;}
</style><path
     class="st0"
     d="M11.7,26.5h6.5v-5.7h-6.5V26.5z M11.7,35.2h6.5v-5.7h-6.5V35.2z M11.7,43.6h6.5v-5.7h-6.5V43.6z M21.7,43.6h6.5  v-5.7h-6.5V43.6z M21.7,35.2h6.5v-5.7h-6.5V35.2z M11.6,18h26.8V6.2H11.6V18z M36.5,1.2H13.5c-3.9,0-7.1,3.2-7.1,7.1v33.6  c0,3.9,3.2,7.1,7.1,7.1h22.9c3.9,0,7.1-3.2,7.1-7.1V8.3C43.6,4.4,40.4,1.2,36.5,1.2z M21.8,26.5h6.5v-5.7h-6.5V26.5z M31.6,26.5h6.5  v-5.7h-6.5V26.5z M31.6,43.6h6.6V29.5h-6.6V43.6z"
     id="path4"
     style="stroke:#ffffff;stroke-opacity:1" /></svg>