<?xml version="1.0" encoding="utf-8"?>
<!-- Generator: Adobe Illustrator 16.0.4, SVG Export Plug-In . SVG Version: 6.00 Build 0)  -->
<!DOCTYPE svg PUBLIC "-//W3C//DTD SVG 1.1//EN" "http://www.w3.org/Graphics/SVG/1.1/DTD/svg11.dtd">
<svg version="1.1" id="Layer_1" xmlns="http://www.w3.org/2000/svg" xmlns:xlink="http://www.w3.org/1999/xlink" x="0px" y="0px"
	 width="64px" height="64px" viewBox="0 0 64 64" enable-background="new 0 0 64 64" xml:space="preserve">
<path fill="#FFFFFF" d="M31.523,45.137c-0.911,0-1.801-0.018-2.677-0.048c-0.537-0.02-1.052-0.053-1.573-0.085
	c-0.321-0.019-0.656-0.03-0.972-0.053c-0.695-0.05-1.367-0.115-2.033-0.186c-0.125-0.014-0.256-0.021-0.379-0.034
	c-0.765-0.084-1.508-0.182-2.232-0.284c-0.017-0.002-0.038-0.004-0.055-0.009c-3.725-0.551-6.927-1.388-9.427-2.387
	c-0.013-0.004-0.026-0.011-0.039-0.018c-0.461-0.184-0.893-0.376-1.306-0.57c-0.046-0.024-0.099-0.046-0.144-0.067
	c-0.372-0.179-0.712-0.362-1.042-0.548c-0.077-0.044-0.157-0.087-0.232-0.132c-0.289-0.168-0.546-0.339-0.795-0.511
	c-0.094-0.065-0.192-0.133-0.283-0.196c-0.21-0.157-0.398-0.312-0.579-0.469c-0.099-0.089-0.197-0.173-0.286-0.261
	c-0.146-0.144-0.277-0.288-0.402-0.433c-0.083-0.101-0.166-0.202-0.238-0.303c-0.098-0.138-0.179-0.274-0.255-0.409
	c-0.061-0.106-0.111-0.216-0.157-0.325c-0.055-0.133-0.096-0.266-0.126-0.399c-0.042-0.177-0.087-0.358-0.087-0.533v-9.036
	c0.03,0.026,0.069,0.057,0.1,0.085c0.24,0.209,0.483,0.421,0.76,0.622c4.149,3.142,12.442,5.579,24.461,5.579
	c11.968,0,20.242-2.417,24.407-5.536c0.331-0.242,0.633-0.491,0.914-0.746h0.002v9.584c0,0.607,0.491,1.101,1.101,1.101
	s1.101-0.493,1.101-1.101V24.219v-0.55V10.458v-0.55c0-0.199-0.068-0.378-0.161-0.54C57.61,4.647,48.122,0,31.523,0
	C14.925,0,5.437,4.647,4.161,9.368C4.068,9.53,4,9.708,4,9.908v0.55v13.211v0.55V36.88v0.552v13.21c0,0.177,0.045,0.347,0.127,0.494
	c1.253,5.321,11.77,8.455,21.808,9.209c0.029,0.002,0.055,0.002,0.086,0.002c0.57,0,1.052-0.439,1.096-1.018
	c0.046-0.607-0.408-1.136-1.015-1.179c-12.236-0.92-19.365-4.646-19.866-7.686c-0.01-0.05-0.02-0.098-0.034-0.146v-9.263
	c0.03,0.029,0.069,0.057,0.102,0.084c0.24,0.213,0.483,0.422,0.76,0.625c4.147,3.138,12.44,5.574,24.459,5.574
	c0.608,0,1.1-0.493,1.1-1.101C32.623,45.631,32.131,45.137,31.523,45.137 M6.865,15.19c0.33,0.26,0.685,0.515,1.072,0.767
	c0.081,0.05,0.172,0.102,0.255,0.153c0.323,0.203,0.667,0.397,1.026,0.594c0.133,0.069,0.267,0.141,0.404,0.211
	c0.402,0.205,0.823,0.402,1.264,0.596c0.074,0.033,0.142,0.065,0.214,0.096c0.517,0.218,1.065,0.427,1.635,0.628
	c0.158,0.057,0.324,0.109,0.482,0.165c0.457,0.154,0.924,0.301,1.411,0.443c0.175,0.05,0.347,0.103,0.526,0.153
	c0.645,0.177,1.308,0.347,2.007,0.504c0.096,0.022,0.199,0.04,0.295,0.062c0.617,0.133,1.256,0.258,1.911,0.374
	c0.222,0.039,0.447,0.078,0.675,0.115c0.626,0.103,1.266,0.196,1.925,0.281c0.171,0.023,0.332,0.047,0.505,0.071
	c0.819,0.098,1.666,0.183,2.537,0.254c0.214,0.019,0.439,0.031,0.656,0.046c0.699,0.05,1.41,0.092,2.138,0.126
	c0.266,0.011,0.53,0.024,0.802,0.033c0.95,0.033,1.917,0.055,2.917,0.055c1,0,1.967-0.024,2.917-0.055
	c0.271-0.009,0.536-0.022,0.802-0.033c0.727-0.034,1.439-0.077,2.138-0.126c0.216-0.016,0.438-0.028,0.655-0.046
	c0.871-0.072,1.719-0.156,2.537-0.254c0.173-0.022,0.335-0.048,0.502-0.071c0.66-0.085,1.303-0.178,1.929-0.281
	c0.228-0.038,0.451-0.077,0.675-0.115c0.655-0.116,1.295-0.241,1.911-0.374c0.096-0.022,0.198-0.04,0.295-0.062
	c0.698-0.157,1.362-0.327,2.006-0.504c0.177-0.05,0.353-0.103,0.527-0.153c0.484-0.142,0.952-0.289,1.408-0.443
	c0.161-0.055,0.327-0.108,0.482-0.165c0.572-0.201,1.121-0.411,1.639-0.628c0.07-0.031,0.139-0.065,0.211-0.096
	c0.442-0.194,0.864-0.392,1.266-0.596c0.138-0.07,0.273-0.143,0.405-0.211c0.359-0.197,0.702-0.392,1.025-0.594
	c0.083-0.051,0.176-0.103,0.256-0.153c0.385-0.252,0.742-0.506,1.072-0.767c0.084-0.066,0.157-0.133,0.236-0.199
	c0.145-0.118,0.294-0.236,0.428-0.355v9.033c0,0.179-0.046,0.356-0.088,0.536c-0.03,0.132-0.074,0.264-0.129,0.397
	c-0.043,0.109-0.098,0.218-0.156,0.328c-0.075,0.135-0.155,0.27-0.254,0.405c-0.073,0.103-0.155,0.204-0.242,0.306
	c-0.122,0.144-0.251,0.288-0.4,0.431c-0.089,0.087-0.185,0.175-0.285,0.259c-0.18,0.157-0.369,0.314-0.579,0.469
	c-0.09,0.068-0.188,0.133-0.284,0.199c-0.246,0.173-0.506,0.343-0.792,0.509c-0.075,0.046-0.156,0.09-0.233,0.133
	c-0.328,0.186-0.671,0.367-1.04,0.546c-0.049,0.024-0.099,0.046-0.146,0.07c-0.412,0.194-0.846,0.387-1.306,0.57
	c-0.013,0.006-0.025,0.011-0.039,0.015c-2.5,1.001-5.699,1.839-9.427,2.39c-0.018,0.002-0.035,0.004-0.055,0.006
	c-0.723,0.107-1.468,0.204-2.229,0.286c-0.124,0.013-0.257,0.022-0.383,0.035c-0.665,0.07-1.337,0.133-2.032,0.183
	c-0.317,0.024-0.649,0.035-0.973,0.056c-0.521,0.031-1.036,0.065-1.572,0.083c-0.876,0.029-1.766,0.048-2.677,0.048
	c-0.911,0-1.801-0.019-2.677-0.052c-0.537-0.018-1.052-0.051-1.573-0.081c-0.321-0.021-0.656-0.033-0.972-0.055
	c-0.695-0.048-1.367-0.116-2.033-0.184c-0.125-0.014-0.256-0.022-0.379-0.038c-0.765-0.083-1.508-0.179-2.232-0.283
	c-0.017-0.002-0.038-0.004-0.055-0.011c-3.725-0.548-6.927-1.387-9.427-2.385c-0.013-0.004-0.026-0.011-0.039-0.016
	c-0.461-0.185-0.893-0.377-1.306-0.572c-0.046-0.022-0.099-0.046-0.144-0.067c-0.372-0.18-0.712-0.36-1.042-0.548
	c-0.077-0.046-0.157-0.087-0.232-0.131c-0.289-0.168-0.546-0.339-0.795-0.511c-0.094-0.065-0.192-0.131-0.283-0.197
	c-0.21-0.155-0.398-0.312-0.579-0.469c-0.099-0.087-0.197-0.173-0.286-0.259c-0.146-0.145-0.277-0.289-0.402-0.436
	c-0.083-0.098-0.166-0.201-0.238-0.301c-0.098-0.135-0.179-0.271-0.255-0.406c-0.061-0.109-0.111-0.219-0.157-0.327
	c-0.055-0.133-0.096-0.267-0.126-0.4c-0.042-0.177-0.087-0.358-0.087-0.533v-9.036c0.13,0.12,0.281,0.237,0.425,0.357
	C6.708,15.057,6.782,15.124,6.865,15.19 M31.523,2.202c14.924,0,25.323,4.351,25.323,8.256c0,3.904-10.398,8.259-25.323,8.259
	c-14.923,0-25.321-4.354-25.321-8.259C6.202,6.553,16.6,2.202,31.523,2.202"/>
<path fill="#FFFFFF" d="M57.831,48.574h-2.208c-0.354,0-0.646-0.194-0.782-0.521c-0.138-0.328-0.07-0.676,0.184-0.924l1.562-1.56
	c0.229-0.231,0.355-0.537,0.355-0.862c0-0.322-0.127-0.627-0.355-0.858l-1.994-1.991c-0.456-0.459-1.255-0.459-1.716,0l-1.562,1.561
	c-0.25,0.252-0.595,0.321-0.923,0.184c-0.328-0.136-0.522-0.428-0.522-0.782v-2.21c0-0.667-0.545-1.214-1.216-1.214h-2.816
	c-0.669,0-1.215,0.547-1.215,1.214v2.21c0,0.354-0.195,0.646-0.521,0.782c-0.327,0.138-0.673,0.068-0.924-0.184l-1.561-1.561
	c-0.461-0.459-1.261-0.459-1.72,0l-1.989,1.991c-0.231,0.231-0.356,0.536-0.356,0.858c0,0.325,0.125,0.631,0.356,0.862l1.562,1.56
	c0.248,0.248,0.318,0.596,0.183,0.924c-0.135,0.327-0.431,0.521-0.783,0.521h-2.208c-0.67,0-1.216,0.547-1.216,1.216v2.815
	c0,0.671,0.546,1.214,1.216,1.214h2.208c0.353,0,0.646,0.197,0.783,0.523c0.136,0.328,0.065,0.674-0.183,0.924l-1.562,1.562
	c-0.231,0.23-0.356,0.535-0.356,0.858c0,0.326,0.125,0.632,0.356,0.86l1.989,1.99c0.459,0.46,1.259,0.46,1.72,0l1.561-1.562
	c0.251-0.249,0.597-0.318,0.924-0.183c0.326,0.135,0.521,0.429,0.521,0.783v2.209c0,0.67,0.546,1.216,1.215,1.216h2.816
	c0.671,0,1.214-0.546,1.214-1.216v-2.209c0-0.354,0.196-0.648,0.524-0.783c0.328-0.136,0.673-0.066,0.923,0.183l1.562,1.562
	c0.458,0.46,1.26,0.458,1.716,0l1.991-1.99c0.229-0.229,0.356-0.534,0.356-0.86c0-0.323-0.127-0.628-0.356-0.858l-1.561-1.562
	c-0.252-0.25-0.319-0.596-0.185-0.924c0.137-0.326,0.432-0.523,0.785-0.523h2.208c0.67,0,1.216-0.543,1.216-1.214V49.79
	C59.047,49.121,58.501,48.574,57.831,48.574 M58.173,52.605c0,0.188-0.152,0.34-0.342,0.34h-2.208c-0.71,0-1.319,0.407-1.59,1.064
	c-0.275,0.655-0.129,1.373,0.371,1.876l1.563,1.561c0.132,0.136,0.132,0.35,0,0.483l-1.991,1.991c-0.136,0.13-0.35,0.133-0.483,0
	l-1.559-1.563c-0.503-0.502-1.223-0.646-1.878-0.373s-1.064,0.882-1.064,1.591v2.209c0,0.187-0.152,0.34-0.34,0.34h-2.816
	c-0.188,0-0.34-0.153-0.34-0.34v-2.209c0-0.709-0.407-1.318-1.063-1.591c-0.22-0.09-0.444-0.136-0.669-0.136
	c-0.444,0-0.872,0.175-1.206,0.509l-1.562,1.563c-0.133,0.13-0.35,0.13-0.482,0l-1.989-1.991c-0.133-0.134-0.133-0.348,0-0.483
	l1.562-1.561c0.5-0.503,0.645-1.221,0.373-1.876c-0.272-0.657-0.882-1.064-1.592-1.064h-2.208c-0.188,0-0.341-0.152-0.341-0.34
	V49.79c0-0.188,0.153-0.34,0.341-0.34h2.208c0.71,0,1.319-0.408,1.592-1.064c0.271-0.654,0.129-1.375-0.373-1.877l-1.562-1.56
	c-0.133-0.134-0.133-0.352,0-0.482l1.989-1.992c0.133-0.132,0.35-0.132,0.482,0l1.562,1.562c0.5,0.505,1.222,0.645,1.875,0.374
	c0.656-0.271,1.063-0.881,1.063-1.591v-2.21c0-0.187,0.151-0.34,0.34-0.34h2.816c0.188,0,0.34,0.153,0.34,0.34v2.21
	c0,0.71,0.409,1.32,1.064,1.591c0.657,0.273,1.375,0.131,1.878-0.374l1.559-1.562c0.136-0.132,0.353-0.132,0.483,0l1.991,1.992
	c0.132,0.133,0.132,0.349,0,0.482l-1.563,1.562c-0.5,0.5-0.646,1.221-0.371,1.875c0.271,0.656,0.88,1.064,1.59,1.064h2.208
	c0.189,0,0.342,0.152,0.342,0.34V52.605z"/>
<path fill="none" stroke="#FFFFFF" stroke-width="0.269" stroke-miterlimit="10" d="M57.831,48.574h-2.208
	c-0.354,0-0.646-0.194-0.782-0.521c-0.138-0.328-0.07-0.676,0.184-0.924l1.562-1.56c0.229-0.231,0.355-0.537,0.355-0.862
	c0-0.322-0.127-0.627-0.355-0.858l-1.994-1.991c-0.456-0.459-1.255-0.459-1.716,0l-1.562,1.561c-0.25,0.252-0.595,0.321-0.923,0.184
	c-0.328-0.136-0.522-0.428-0.522-0.782v-2.21c0-0.667-0.545-1.214-1.216-1.214h-2.816c-0.669,0-1.215,0.547-1.215,1.214v2.21
	c0,0.354-0.195,0.646-0.521,0.782c-0.327,0.138-0.673,0.068-0.924-0.184l-1.561-1.561c-0.461-0.459-1.261-0.459-1.72,0l-1.989,1.991
	c-0.231,0.231-0.356,0.536-0.356,0.858c0,0.325,0.125,0.631,0.356,0.862l1.562,1.56c0.248,0.248,0.318,0.596,0.183,0.924
	c-0.135,0.327-0.431,0.521-0.783,0.521h-2.208c-0.67,0-1.216,0.547-1.216,1.216v2.815c0,0.671,0.546,1.214,1.216,1.214h2.208
	c0.353,0,0.646,0.197,0.783,0.523c0.136,0.328,0.065,0.674-0.183,0.924l-1.562,1.562c-0.231,0.23-0.356,0.535-0.356,0.858
	c0,0.326,0.125,0.632,0.356,0.86l1.989,1.99c0.459,0.46,1.259,0.46,1.72,0l1.561-1.562c0.251-0.249,0.597-0.318,0.924-0.183
	c0.326,0.135,0.521,0.429,0.521,0.783v2.209c0,0.67,0.546,1.216,1.215,1.216h2.816c0.671,0,1.214-0.546,1.214-1.216v-2.209
	c0-0.354,0.196-0.648,0.524-0.783c0.328-0.136,0.673-0.066,0.923,0.183l1.562,1.562c0.458,0.46,1.26,0.458,1.716,0l1.991-1.99
	c0.229-0.229,0.356-0.534,0.356-0.86c0-0.323-0.127-0.628-0.356-0.858l-1.561-1.562c-0.252-0.25-0.319-0.596-0.185-0.924
	c0.137-0.326,0.432-0.523,0.785-0.523h2.208c0.67,0,1.216-0.543,1.216-1.214V49.79C59.047,49.121,58.501,48.574,57.831,48.574z
	 M58.173,52.605c0,0.188-0.152,0.34-0.342,0.34h-2.208c-0.71,0-1.319,0.407-1.59,1.064c-0.275,0.655-0.129,1.373,0.371,1.876
	l1.563,1.561c0.132,0.136,0.132,0.35,0,0.483l-1.991,1.991c-0.136,0.13-0.35,0.133-0.483,0l-1.559-1.563
	c-0.503-0.502-1.223-0.646-1.878-0.373s-1.064,0.882-1.064,1.591v2.209c0,0.187-0.152,0.34-0.34,0.34h-2.816
	c-0.188,0-0.34-0.153-0.34-0.34v-2.209c0-0.709-0.407-1.318-1.063-1.591c-0.22-0.09-0.444-0.136-0.669-0.136
	c-0.444,0-0.872,0.175-1.206,0.509l-1.562,1.563c-0.133,0.13-0.35,0.13-0.482,0l-1.989-1.991c-0.133-0.134-0.133-0.348,0-0.483
	l1.562-1.561c0.5-0.503,0.645-1.221,0.373-1.876c-0.272-0.657-0.882-1.064-1.592-1.064h-2.208c-0.188,0-0.341-0.152-0.341-0.34
	V49.79c0-0.188,0.153-0.34,0.341-0.34h2.208c0.71,0,1.319-0.408,1.592-1.064c0.271-0.654,0.129-1.375-0.373-1.877l-1.562-1.56
	c-0.133-0.134-0.133-0.352,0-0.482l1.989-1.992c0.133-0.132,0.35-0.132,0.482,0l1.562,1.562c0.5,0.505,1.222,0.645,1.875,0.374
	c0.656-0.271,1.063-0.881,1.063-1.591v-2.21c0-0.187,0.151-0.34,0.34-0.34h2.816c0.188,0,0.34,0.153,0.34,0.34v2.21
	c0,0.71,0.409,1.32,1.064,1.591c0.657,0.273,1.375,0.131,1.878-0.374l1.559-1.562c0.136-0.132,0.353-0.132,0.483,0l1.991,1.992
	c0.132,0.133,0.132,0.349,0,0.482l-1.563,1.562c-0.5,0.5-0.646,1.221-0.371,1.875c0.271,0.656,0.88,1.064,1.59,1.064h2.208
	c0.189,0,0.342,0.152,0.342,0.34V52.605z"/>
<path fill="#FFFFFF" d="M47.246,47.264c-2.171,0-3.935,1.765-3.935,3.934c0,2.171,1.764,3.935,3.935,3.935
	c2.169,0,3.933-1.764,3.933-3.935C51.179,49.028,49.415,47.264,47.246,47.264 M47.246,54.256c-1.688,0-3.062-1.371-3.062-3.059
	c0-1.687,1.373-3.061,3.062-3.061c1.686,0,3.06,1.374,3.06,3.061C50.306,52.885,48.932,54.256,47.246,54.256"/>
<path fill="none" stroke="#FFFFFF" stroke-width="0.269" stroke-miterlimit="10" d="M47.246,47.264
	c-2.171,0-3.935,1.765-3.935,3.934c0,2.171,1.764,3.935,3.935,3.935c2.169,0,3.933-1.764,3.933-3.935
	C51.179,49.028,49.415,47.264,47.246,47.264z M47.246,54.256c-1.688,0-3.062-1.371-3.062-3.059c0-1.687,1.373-3.061,3.062-3.061
	c1.686,0,3.06,1.374,3.06,3.061C50.306,52.885,48.932,54.256,47.246,54.256z"/>
</svg>
