<?xml version="1.0" encoding="utf-8"?>
<!-- Generator: Adobe Illustrator 16.0.4, SVG Export Plug-In . SVG Version: 6.00 Build 0)  -->
<!DOCTYPE svg PUBLIC "-//W3C//DTD SVG 1.1//EN" "http://www.w3.org/Graphics/SVG/1.1/DTD/svg11.dtd">
<svg version="1.1" id="Layer_1" xmlns="http://www.w3.org/2000/svg" xmlns:xlink="http://www.w3.org/1999/xlink" x="0px" y="0px"
	 width="64px" height="64px" viewBox="0 0 64 64" enable-background="new 0 0 64 64" xml:space="preserve">
<path fill="#FFFFFF" d="M54.575,34.949c0.14-1.008,0.14-1.869,0.14-2.879c0-1.006-0.14-2.014-0.14-2.876l6.328-4.892
	c0.578-0.431,0.719-1.295,0.432-1.87l-6.041-10.502c-0.433-0.72-1.151-0.863-1.871-0.72l-7.483,3.021
	c-1.582-1.151-3.308-2.158-5.034-2.877l-1.151-8.057C39.611,2.575,39.032,2,38.313,2h-11.94c-0.72,0-1.439,0.575-1.439,1.296
	l-1.295,8.057c-1.87,0.719-3.454,1.726-5.036,2.877l-7.482-3.021c-0.719-0.288-1.438,0-1.869,0.72L3.208,22.288
	c-0.432,0.719-0.145,1.438,0.432,1.871l6.33,5.036c-0.143,1.007-0.143,2.015-0.143,2.876c0,0.863,0.143,2.017,0.143,2.879
	l-6.33,4.894c-0.576,0.431-0.719,1.291-0.432,1.869l6.044,10.501c0.431,0.722,1.15,0.864,1.869,0.722l7.482-3.021
	c1.582,1.15,3.309,2.159,5.036,2.877l1.151,7.911C24.935,61.421,25.51,62,26.229,62h11.942c0.721,0,1.44-0.579,1.44-1.299
	l1.151-7.911c1.869-0.718,3.452-1.727,5.036-2.877l7.479,3.021c0.72,0.289,1.438,0,1.87-0.722l6.044-10.357
	c0.431-0.722,0.144-1.44-0.432-1.872L54.575,34.949z M32.272,42.575c-5.755,0-10.503-4.747-10.503-10.505
	c0-5.754,4.748-10.502,10.503-10.502c5.755,0,10.502,4.748,10.502,10.502C42.774,37.828,38.027,42.575,32.272,42.575z"/>
</svg>
