<?xml version="1.0" encoding="utf-8"?>
<!-- Generator: Adobe Illustrator 16.0.4, SVG Export Plug-In . SVG Version: 6.00 Build 0)  -->
<!DOCTYPE svg PUBLIC "-//W3C//DTD SVG 1.1//EN" "http://www.w3.org/Graphics/SVG/1.1/DTD/svg11.dtd">
<svg version="1.1" id="Layer_1" xmlns="http://www.w3.org/2000/svg" xmlns:xlink="http://www.w3.org/1999/xlink" x="0px" y="0px"
	 width="64px" height="64px" viewBox="0 0 64 64" enable-background="new 0 0 64 64" xml:space="preserve">
<path fill="#FFFFFF" d="M58.682,47.748l-10.19-5.095c-0.96-0.482-1.559-1.447-1.559-2.525v-3.605
	c0.244-0.296,0.502-0.638,0.768-1.014c1.323-1.866,2.381-3.944,3.151-6.184c1.504-0.69,2.482-2.181,2.482-3.859v-4.269
	c0-1.026-0.385-2.021-1.067-2.799v-5.673c0.061-0.585,0.294-4.079-2.231-6.958C47.845,3.266,44.289,2,39.468,2
	c-4.825,0-8.38,1.266-10.571,3.764c-1.529,1.746-2.044,3.714-2.199,5.125c-1.83-0.945-3.983-1.424-6.43-1.424
	c-11.082,0-11.728,9.445-11.733,9.6v4.883c-0.692,0.755-1.067,1.624-1.067,2.487v3.682c0,1.152,0.516,2.225,1.399,2.951
	c0.88,3.316,3.044,5.825,3.886,6.704v2.925c0,0.84-0.455,1.614-1.249,2.044l-7.097,4.451C1.688,50.676,0,53.521,0,56.614v4.051
	h14.934h2.134H64v-4.313C64,52.688,61.963,49.387,58.682,47.748 M14.934,56.145v2.388H2.132v-1.918c0-2.314,1.264-4.439,3.352-5.579
	l7.096-4.453c1.42-0.775,2.304-2.263,2.304-3.885v-3.831l-0.338-0.315c-0.029-0.025-2.862-2.7-3.702-6.352l-0.097-0.423
	l-0.362-0.233c-0.492-0.318-0.786-0.85-0.786-1.426v-3.682c0-0.386,0.263-0.842,0.714-1.252l0.351-0.317v-5.739
	c0.019-0.307,0.575-7.528,9.603-7.528c2.553,0,4.701,0.588,6.399,1.751v5.047c-0.682,0.778-1.065,1.773-1.065,2.799v4.269
	c0,0.324,0.037,0.644,0.106,0.952c0.027,0.123,0.088,0.238,0.127,0.357c0.059,0.178,0.105,0.363,0.187,0.531
	c0.001,0.004,0.001,0.004,0.005,0.008c0.272,0.562,0.67,1.065,1.171,1.466c0.006,0.022,0.012,0.04,0.017,0.06
	c0.064,0.242,0.132,0.488,0.204,0.725l0.086,0.277c0.015,0.051,0.033,0.1,0.05,0.15c0.036,0.113,0.073,0.229,0.111,0.344
	c0.064,0.186,0.131,0.377,0.208,0.586c0.033,0.088,0.07,0.167,0.104,0.254c0.088,0.223,0.175,0.439,0.265,0.652
	c0.023,0.051,0.042,0.105,0.064,0.156l0.06,0.135c0.027,0.061,0.057,0.119,0.083,0.18c0.105,0.225,0.207,0.449,0.312,0.66
	c0.019,0.037,0.035,0.072,0.052,0.107c0.067,0.133,0.137,0.258,0.203,0.387c0.115,0.219,0.228,0.426,0.34,0.627
	c0.056,0.1,0.11,0.195,0.166,0.287c0.152,0.264,0.298,0.501,0.44,0.728c0.031,0.045,0.061,0.097,0.092,0.144
	c0.257,0.398,0.48,0.726,0.667,0.976c0.05,0.07,0.092,0.124,0.133,0.184c0.023,0.031,0.057,0.076,0.075,0.102v3.534
	c0,1.029-0.564,1.975-1.468,2.47l-2.823,1.54l-0.49-0.042l-0.2,0.421l-6.002,3.273C16.854,49.387,14.934,52.62,14.934,56.145
	 M61.867,58.532h-44.8v-2.388c0-2.743,1.496-5.262,3.902-6.574l9.515-5.191c1.594-0.867,2.582-2.536,2.582-4.346v-4.288l-0.209-0.25
	l-0.038-0.048c-0.004-0.002-0.068-0.082-0.177-0.225c-0.006-0.008-0.012-0.016-0.018-0.025c-0.057-0.07-0.126-0.162-0.199-0.266
	c-0.002-0.004-0.002-0.006-0.006-0.006c-0.157-0.22-0.359-0.509-0.578-0.855c-0.005-0.006-0.01-0.014-0.016-0.02
	c-0.104-0.166-0.217-0.344-0.327-0.531c-0.01-0.016-0.018-0.031-0.026-0.043c-0.243-0.403-0.498-0.862-0.754-1.369v-0.002
	c-0.135-0.272-0.271-0.559-0.403-0.855c-0.019-0.041-0.04-0.082-0.055-0.124c-0.06-0.133-0.119-0.271-0.177-0.418
	c-0.021-0.05-0.043-0.105-0.064-0.159c-0.055-0.139-0.111-0.28-0.172-0.441c-0.11-0.291-0.21-0.592-0.309-0.904l-0.061-0.191
	c-0.003-0.021-0.012-0.041-0.019-0.066c-0.1-0.335-0.195-0.68-0.277-1.035l-0.097-0.42l-0.363-0.236
	c-0.617-0.399-0.987-1.068-0.987-1.788v-4.269c0-0.596,0.252-1.154,0.715-1.572L28.8,19.31v-6.645v-0.377l-0.029-0.023
	c-0.038-0.77,0.01-3.129,1.731-5.092c1.769-2.019,4.785-3.041,8.966-3.041c4.166,0,7.175,1.014,8.944,3.016
	c2.076,2.349,1.731,5.352,1.73,5.378l-0.01,6.783l0.352,0.319c0.462,0.415,0.716,0.973,0.716,1.569v4.269
	c0,0.931-0.611,1.745-1.519,2.026l-0.529,0.161l-0.172,0.529c-0.712,2.222-1.729,4.27-3.021,6.095
	c-0.316,0.449-0.626,0.845-0.893,1.15l-0.269,0.301v4.399c0,1.891,1.051,3.587,2.739,4.432l10.188,5.095
	c2.554,1.278,4.142,3.843,4.142,6.697V58.532z"/>
</svg>
