<?xml version="1.0" encoding="utf-8"?>
<!-- Generator: Adobe Illustrator 16.0.4, SVG Export Plug-In . SVG Version: 6.00 Build 0)  -->
<!DOCTYPE svg PUBLIC "-//W3C//DTD SVG 1.1//EN" "http://www.w3.org/Graphics/SVG/1.1/DTD/svg11.dtd">
<svg version="1.1" id="Layer_1" xmlns="http://www.w3.org/2000/svg" xmlns:xlink="http://www.w3.org/1999/xlink" x="0px" y="0px"
	 width="64px" height="64px" viewBox="0 0 64 64" enable-background="new 0 0 64 64" xml:space="preserve">
<path fill="#FFFFFF" d="M41.199,50.184h-1.961c-0.316,0-0.577-0.175-0.697-0.466c-0.12-0.29-0.062-0.597,0.163-0.821l1.388-1.387
	c0.203-0.204,0.316-0.476,0.316-0.763c0-0.289-0.113-0.562-0.316-0.765l-1.768-1.769c-0.408-0.407-1.121-0.409-1.528,0l-1.387,1.389
	c-0.224,0.221-0.532,0.282-0.819,0.162c-0.293-0.12-0.469-0.381-0.469-0.697v-1.962c0-0.595-0.484-1.08-1.078-1.08h-2.501
	c-0.596,0-1.083,0.485-1.083,1.08v1.962c0,0.316-0.171,0.577-0.461,0.697c-0.292,0.12-0.6,0.059-0.823-0.162l-1.386-1.389
	c-0.41-0.409-1.12-0.407-1.53,0l-1.768,1.769c-0.204,0.203-0.316,0.476-0.316,0.765c0,0.287,0.113,0.559,0.316,0.763l1.388,1.387
	c0.223,0.225,0.283,0.531,0.163,0.821c-0.121,0.291-0.38,0.466-0.696,0.466h-1.962c-0.596,0-1.08,0.483-1.08,1.079v2.502
	c0,0.595,0.483,1.081,1.08,1.081h1.962c0.316,0,0.576,0.173,0.696,0.464c0.12,0.29,0.061,0.599-0.163,0.82l-1.388,1.388
	c-0.204,0.204-0.316,0.476-0.316,0.763c0,0.289,0.113,0.562,0.316,0.765l1.768,1.771c0.41,0.407,1.12,0.409,1.53,0l1.386-1.389
	c0.223-0.223,0.529-0.284,0.823-0.162c0.29,0.12,0.461,0.381,0.461,0.694v1.963c0,0.595,0.487,1.078,1.083,1.078h2.499
	c0.596,0,1.08-0.483,1.08-1.078v-1.963c0-0.313,0.174-0.574,0.465-0.694c0.293-0.122,0.6-0.061,0.823,0.162l1.385,1.389
	c0.409,0.407,1.12,0.407,1.53,0l1.768-1.771c0.203-0.203,0.316-0.476,0.316-0.765c0-0.287-0.113-0.559-0.316-0.763l-1.388-1.388
	c-0.226-0.222-0.283-0.53-0.163-0.82c0.12-0.291,0.381-0.464,0.697-0.464h1.961c0.595,0,1.079-0.486,1.079-1.081v-2.502
	C42.278,50.667,41.794,50.184,41.199,50.184 M41.502,53.765c0,0.166-0.136,0.303-0.303,0.303h-1.961
	c-0.631,0-1.172,0.362-1.416,0.945c-0.24,0.581-0.113,1.223,0.33,1.669l1.391,1.385c0.117,0.118,0.117,0.312,0,0.429l-1.768,1.769
	c-0.12,0.121-0.311,0.121-0.43,0l-1.388-1.386c-0.446-0.446-1.085-0.572-1.667-0.332c-0.584,0.24-0.943,0.782-0.943,1.413v1.963
	c0,0.166-0.139,0.305-0.305,0.305h-2.501c-0.167,0-0.305-0.139-0.305-0.305v-1.963c0-0.631-0.364-1.173-0.946-1.413
	c-0.193-0.081-0.395-0.12-0.593-0.12c-0.396,0-0.777,0.155-1.074,0.452l-1.387,1.386c-0.118,0.121-0.311,0.119-0.429,0l-1.768-1.769
	c-0.119-0.118-0.119-0.311,0-0.429l1.387-1.387c0.446-0.444,0.575-1.086,0.332-1.667c-0.24-0.583-0.781-0.945-1.414-0.945h-1.962
	c-0.167,0-0.303-0.137-0.303-0.303v-2.502c0-0.167,0.135-0.303,0.303-0.303h1.962c0.633,0,1.174-0.36,1.414-0.945
	c0.243-0.581,0.114-1.221-0.332-1.667l-1.387-1.387c-0.119-0.118-0.119-0.311,0-0.429l1.768-1.77c0.118-0.118,0.311-0.118,0.429,0
	l1.387,1.389c0.447,0.444,1.085,0.572,1.667,0.329c0.583-0.24,0.946-0.782,0.946-1.413v-1.962c0-0.166,0.137-0.303,0.305-0.303
	h2.499c0.168,0,0.307,0.137,0.307,0.303v1.962c0,0.631,0.359,1.173,0.943,1.415c0.582,0.241,1.221,0.115,1.667-0.331l1.388-1.389
	c0.119-0.118,0.31-0.118,0.43,0l1.768,1.77c0.117,0.118,0.117,0.311,0,0.429l-1.391,1.387c-0.443,0.446-0.57,1.086-0.33,1.669
	c0.244,0.583,0.785,0.943,1.416,0.943h1.961c0.167,0,0.303,0.136,0.303,0.303V53.765z"/>
<path fill="none" stroke="#FFFFFF" stroke-width="0.269" stroke-miterlimit="10" d="M41.199,50.184h-1.961
	c-0.316,0-0.577-0.175-0.697-0.466c-0.12-0.29-0.062-0.597,0.163-0.821l1.388-1.387c0.203-0.204,0.316-0.476,0.316-0.763
	c0-0.289-0.113-0.562-0.316-0.765l-1.768-1.769c-0.408-0.407-1.121-0.409-1.528,0l-1.387,1.389
	c-0.224,0.221-0.532,0.282-0.819,0.162c-0.293-0.12-0.469-0.381-0.469-0.697v-1.962c0-0.595-0.484-1.08-1.078-1.08h-2.501
	c-0.596,0-1.083,0.485-1.083,1.08v1.962c0,0.316-0.171,0.577-0.461,0.697c-0.292,0.12-0.6,0.059-0.823-0.162l-1.386-1.389
	c-0.41-0.409-1.12-0.407-1.53,0l-1.768,1.769c-0.204,0.203-0.316,0.476-0.316,0.765c0,0.287,0.113,0.559,0.316,0.763l1.388,1.387
	c0.223,0.225,0.283,0.531,0.163,0.821c-0.121,0.291-0.38,0.466-0.696,0.466h-1.962c-0.596,0-1.08,0.483-1.08,1.079v2.502
	c0,0.595,0.483,1.081,1.08,1.081h1.962c0.316,0,0.576,0.173,0.696,0.464c0.12,0.29,0.061,0.599-0.163,0.82l-1.388,1.388
	c-0.204,0.204-0.316,0.476-0.316,0.763c0,0.289,0.113,0.562,0.316,0.765l1.768,1.771c0.41,0.407,1.12,0.409,1.53,0l1.386-1.389
	c0.223-0.223,0.529-0.284,0.823-0.162c0.29,0.12,0.461,0.381,0.461,0.694v1.963c0,0.595,0.487,1.078,1.083,1.078h2.499
	c0.596,0,1.08-0.483,1.08-1.078v-1.963c0-0.313,0.174-0.574,0.465-0.694c0.293-0.122,0.6-0.061,0.823,0.162l1.385,1.389
	c0.409,0.407,1.12,0.407,1.53,0l1.768-1.771c0.203-0.203,0.316-0.476,0.316-0.765c0-0.287-0.113-0.559-0.316-0.763l-1.388-1.388
	c-0.226-0.222-0.283-0.53-0.163-0.82c0.12-0.291,0.381-0.464,0.697-0.464h1.961c0.595,0,1.079-0.486,1.079-1.081v-2.502
	C42.278,50.667,41.794,50.184,41.199,50.184z M41.502,53.765c0,0.166-0.136,0.303-0.303,0.303h-1.961
	c-0.631,0-1.172,0.362-1.416,0.945c-0.24,0.581-0.113,1.223,0.33,1.669l1.391,1.385c0.117,0.118,0.117,0.312,0,0.429l-1.768,1.769
	c-0.12,0.121-0.311,0.121-0.43,0l-1.388-1.386c-0.446-0.446-1.085-0.572-1.667-0.332c-0.584,0.24-0.943,0.782-0.943,1.413v1.963
	c0,0.166-0.139,0.305-0.305,0.305h-2.501c-0.167,0-0.305-0.139-0.305-0.305v-1.963c0-0.631-0.364-1.173-0.946-1.413
	c-0.193-0.081-0.395-0.12-0.593-0.12c-0.396,0-0.777,0.155-1.074,0.452l-1.387,1.386c-0.118,0.121-0.311,0.119-0.429,0l-1.768-1.769
	c-0.119-0.118-0.119-0.311,0-0.429l1.387-1.387c0.446-0.444,0.575-1.086,0.332-1.667c-0.24-0.583-0.781-0.945-1.414-0.945h-1.962
	c-0.167,0-0.303-0.137-0.303-0.303v-2.502c0-0.167,0.135-0.303,0.303-0.303h1.962c0.633,0,1.174-0.36,1.414-0.945
	c0.243-0.581,0.114-1.221-0.332-1.667l-1.387-1.387c-0.119-0.118-0.119-0.311,0-0.429l1.768-1.77c0.118-0.118,0.311-0.118,0.429,0
	l1.387,1.389c0.447,0.444,1.085,0.572,1.667,0.329c0.583-0.24,0.946-0.782,0.946-1.413v-1.962c0-0.166,0.137-0.303,0.305-0.303
	h2.499c0.168,0,0.307,0.137,0.307,0.303v1.962c0,0.631,0.359,1.173,0.943,1.415c0.582,0.241,1.221,0.115,1.667-0.331l1.388-1.389
	c0.119-0.118,0.31-0.118,0.43,0l1.768,1.77c0.117,0.118,0.117,0.311,0,0.429l-1.391,1.387c-0.443,0.446-0.57,1.086-0.33,1.669
	c0.244,0.583,0.785,0.943,1.416,0.943h1.961c0.167,0,0.303,0.136,0.303,0.303V53.765z"/>
<path fill="#FFFFFF" d="M31.792,49.018c-1.927,0-3.495,1.568-3.495,3.496s1.568,3.496,3.495,3.496c1.928,0,3.498-1.568,3.498-3.496
	S33.72,49.018,31.792,49.018 M31.792,55.233c-1.499,0-2.719-1.221-2.719-2.72s1.221-2.718,2.719-2.718
	c1.5,0,2.718,1.219,2.718,2.718S33.291,55.233,31.792,55.233"/>
<path fill="none" stroke="#FFFFFF" stroke-width="0.269" stroke-miterlimit="10" d="M31.792,49.018
	c-1.927,0-3.495,1.568-3.495,3.496s1.568,3.496,3.495,3.496c1.928,0,3.498-1.568,3.498-3.496S33.72,49.018,31.792,49.018z
	 M31.792,55.233c-1.499,0-2.719-1.221-2.719-2.72s1.221-2.718,2.719-2.718c1.5,0,2.718,1.219,2.718,2.718
	S33.291,55.233,31.792,55.233z"/>
<path fill="#FFFFFF" d="M49.642,42.501l-9.466-4.733c-0.894-0.445-1.448-1.345-1.448-2.345v-3.349
	c0.227-0.278,0.465-0.594,0.714-0.944c1.227-1.732,2.209-3.662,2.927-5.746c1.397-0.64,2.305-2.022,2.305-3.585v-3.962
	c0-0.956-0.356-1.877-0.989-2.601V9.965c0.054-0.543,0.271-3.79-2.074-6.466C39.573,1.178,36.271,0,31.792,0
	c-4.479,0-7.783,1.178-9.818,3.497c-1.423,1.623-1.9,3.451-2.045,4.764l-0.027,2.286v4.689c-0.635,0.724-0.992,1.645-0.992,2.601
	v3.962c0,0.303,0.035,0.598,0.101,0.886c0.027,0.116,0.079,0.221,0.116,0.332c0.054,0.166,0.097,0.337,0.174,0.495
	c0,0.002,0,0.004,0,0.006c0.256,0.522,0.625,0.991,1.091,1.364c0.006,0.021,0.011,0.035,0.017,0.054
	c0.059,0.226,0.123,0.453,0.188,0.674l0.082,0.257c0.014,0.047,0.031,0.093,0.045,0.139c0.035,0.106,0.067,0.213,0.104,0.318
	c0.058,0.173,0.121,0.353,0.193,0.547c0.032,0.082,0.064,0.156,0.095,0.235c0.08,0.208,0.164,0.408,0.249,0.605
	c0.021,0.049,0.039,0.099,0.06,0.146l0.055,0.126c0.025,0.056,0.052,0.109,0.08,0.166c0.097,0.211,0.191,0.417,0.29,0.615
	c0.017,0.033,0.032,0.065,0.047,0.096c0.062,0.125,0.124,0.243,0.187,0.361c0.106,0.204,0.213,0.396,0.318,0.583
	c0.05,0.09,0.101,0.18,0.151,0.267c0.145,0.244,0.28,0.466,0.412,0.676c0.027,0.044,0.055,0.092,0.083,0.134
	c0.239,0.371,0.448,0.671,0.621,0.907c0.044,0.062,0.083,0.116,0.122,0.168c0.023,0.03,0.053,0.072,0.072,0.097v3.278
	c0,0.96-0.524,1.84-1.364,2.299l-2.624,1.433l-0.357,0.126l-0.286,0.222l-5.575,3.043C10.786,44.02,9,47.028,9,50.302v2.219v1.981
	h1.981h6.445c-0.035-0.334-0.101-0.658-0.101-1c0-0.337,0.066-0.653,0.099-0.981h-6.443v-2.219c0-2.546,1.389-4.89,3.627-6.106
	l8.839-4.823c1.477-0.808,2.396-2.358,2.396-4.038V31.35l-0.19-0.232l-0.039-0.044c-0.002-0.002-0.064-0.076-0.164-0.206
	c-0.006-0.01-0.011-0.018-0.019-0.025c-0.052-0.07-0.114-0.152-0.185-0.249c-0.002-0.003-0.002-0.003-0.002-0.005
	c-0.147-0.206-0.333-0.469-0.54-0.794c-0.005-0.003-0.009-0.011-0.013-0.021c-0.099-0.149-0.2-0.314-0.307-0.49l-0.023-0.042
	c-0.223-0.374-0.462-0.802-0.699-1.271c-0.126-0.253-0.252-0.52-0.375-0.796l-0.052-0.117c-0.055-0.124-0.108-0.25-0.166-0.386
	c-0.019-0.048-0.038-0.099-0.058-0.149c-0.053-0.128-0.104-0.261-0.159-0.41c-0.103-0.27-0.198-0.549-0.29-0.842l-0.054-0.177
	c-0.006-0.019-0.012-0.039-0.018-0.061c-0.093-0.312-0.183-0.63-0.258-0.96l-0.091-0.394l-0.337-0.217
	c-0.575-0.37-0.917-0.991-0.917-1.663v-3.962c0-0.554,0.233-1.075,0.665-1.459l0.326-0.297V9.911V9.558l-0.028-0.019
	c-0.033-0.716,0.009-2.91,1.609-4.733c1.642-1.875,4.442-2.824,8.328-2.824c3.869,0,6.666,0.943,8.31,2.804
	c1.929,2.18,1.611,4.97,1.609,4.993l-0.01,6.301l0.327,0.297c0.427,0.384,0.663,0.906,0.663,1.459v3.962
	c0,0.867-0.565,1.623-1.408,1.882l-0.494,0.152l-0.158,0.493c-0.664,2.06-1.606,3.966-2.809,5.658
	c-0.295,0.417-0.582,0.789-0.83,1.07l-0.246,0.281v4.087c0,1.755,0.974,3.33,2.543,4.116l9.466,4.733
	c2.373,1.186,3.846,3.57,3.846,6.222v2.026h-6.44c0.031,0.328,0.097,0.645,0.097,0.981c0,0.342-0.067,0.666-0.099,1h8.424v-4.008
	C54.582,47.091,52.688,44.023,49.642,42.501"/>
</svg>
