<?xml version="1.0" encoding="utf-8"?>
<!-- Generator: Adobe Illustrator 21.1.0, SVG Export Plug-In . SVG Version: 6.00 Build 0)  -->
<svg version="1.1" id="Layer_1" xmlns="http://www.w3.org/2000/svg" xmlns:xlink="http://www.w3.org/1999/xlink" x="0px" y="0px"
	 viewBox="0 0 24 24" style="enable-background:new 0 0 24 24;" xml:space="preserve">
<style type="text/css">
	.st0{fill:#FF0000;}
</style>
<path class="st0" d="M13,2v3.1c3,0.5,6,3.4,6,6.9c0,1.5-0.6,3-1.5,4.1L7.9,6.5c0.9-0.7,2-1.2,3.1-1.4V2C6,2.5,2,6.8,2,12s4,9.5,9,10
	v-3.1c-3-0.5-6-3.4-6-6.9c0-1.5,0.6-3,1.5-4.1l9.6,9.6c-0.9,0.7-2,1.2-3.1,1.4V22c5-0.5,9-4.8,9-10S18,2.5,13,2z"/>
</svg>
