<?xml version="1.0" encoding="utf-8"?>
<!-- Generator: Adobe Illustrator 21.1.0, SVG Export Plug-In . SVG Version: 6.00 Build 0)  -->
<svg version="1.1" id="Layer_1" xmlns="http://www.w3.org/2000/svg" xmlns:xlink="http://www.w3.org/1999/xlink" x="0px" y="0px"
	 viewBox="0 0 50 50" style="enable-background:new 0 0 50 50;" xml:space="preserve">
<style type="text/css">
	.st0{fill:#2c3841;}
</style>
<g>
	<path id="Box-open_4_" class="st0" d="M49.3,24.8l-5.4-6.3l5.4-6.3c0.2-0.2,0.2-0.4,0.2-0.6c0-0.2-0.2-0.4-0.4-0.5L31.6,1.3
		c-0.3-0.2-0.7-0.1-0.9,0.1l-5.3,5.3l-5.3-5.3c-0.2-0.2-0.6-0.3-0.9-0.1L0.6,12c-0.2,0.1-0.4,0.3-0.4,0.6c0,0.2,0.1,0.5,0.3,0.7
		l6.3,5.4l-5.4,7.2c-0.1,0.2-0.2,0.4-0.1,0.6c0,0.2,0.2,0.4,0.4,0.5l5.4,3c0,0.1,0,0.1,0,0.2v7.1c0,0.9,0.5,1.8,1.3,2.3l15.7,9
		c0.4,0.2,0.9,0.4,1.4,0.4c0,0,0,0,0,0c0,0,0,0,0,0c0,0,0,0,0,0c0.5,0,0.9-0.1,1.3-0.4l15.6-9c0.8-0.5,1.4-1.4,1.4-2.4v-7.9l5.5-3.3
		c0.2-0.1,0.3-0.3,0.4-0.5C49.5,25.2,49.5,25,49.3,24.8z M24.6,26.9L9.4,18.4l15.2-9.3V26.9z M26.1,9.1l15.3,9.3l-15.3,8.5V9.1z
		 M31.3,2.9l16.2,9l-4.8,5.6L26.6,7.6L31.3,2.9z M19.4,2.9l4.7,4.7L7.9,17.5l-5.6-4.8L19.4,2.9z M8.1,19.5l16.1,9L19.3,35L3.1,26
		L8.1,19.5z M9.1,38.2c-0.3-0.2-0.6-0.6-0.6-1v-6.5l10.6,5.9c0.1,0.1,0.2,0.1,0.4,0.1c0.2,0,0.5-0.1,0.6-0.3l4.4-6v16.7L9.1,38.2z
		 M42.1,37.2c0,0.4-0.2,0.8-0.6,1l-15.4,8.9V30.5l4.5,6c0.2,0.2,0.4,0.3,0.6,0.3c0.1,0,0.3,0,0.4-0.1l10.5-6.4V37.2z M31.4,35
		l-4.9-6.5l16.2-9l4.8,5.7L31.4,35z"/>
</g>
</svg>
