<?xml version="1.0" standalone="no"?>
<!DOCTYPE svg PUBLIC "-//W3C//DTD SVG 20010904//EN"
 "http://www.w3.org/TR/2001/REC-SVG-20010904/DTD/svg10.dtd">
<svg version="1.0" xmlns="http://www.w3.org/2000/svg"
 width="16.000000pt" height="16.000000pt" viewBox="0 0 16.000000 16.000000"
 preserveAspectRatio="xMidYMid meet">
<metadata>
Created by potrace 1.11, written by Peter Selinger 2001-2013
</metadata>
<g transform="translate(0.000000,16.000000) scale(0.003125,-0.003125)"
fill="#000000" stroke="none">
<path d="M0 2560 l0 -2560 2560 0 2560 0 0 2560 0 2560 -2560 0 -2560 0 0
-2560z m972 380 l3 -311 284 311 285 310 189 0 189 0 -160 -167 c-88 -93 -174
-181 -192 -198 -18 -16 -63 -65 -101 -107 l-70 -77 262 -403 c144 -222 269
-413 277 -425 l14 -23 -183 0 -184 1 -189 324 c-103 179 -191 325 -195 325 -4
0 -57 -51 -119 -113 l-112 -114 0 -211 0 -212 -140 0 -140 0 0 700 0 700 140
0 140 0 2 -310z m1990 281 c81 -26 166 -99 205 -175 34 -67 43 -181 19 -252
-22 -66 -74 -134 -129 -171 l-46 -30 54 -22 c73 -30 135 -87 170 -157 27 -54
30 -68 30 -159 0 -91 -3 -106 -31 -166 -37 -78 -90 -140 -151 -175 -89 -53
-117 -56 -565 -61 l-418 -5 0 702 0 702 398 -4 c375 -4 401 -6 464 -27z m1098
-371 l0 -180 185 0 185 0 0 -125 0 -125 -182 -2 -183 -3 -3 -182 -2 -183 -120
0 -120 0 -2 183 -3 182 -182 3 -183 2 0 125 0 125 185 0 185 0 0 180 0 180
120 0 120 0 0 -180z"/>
<path d="M2380 2856 l0 -166 174 0 c245 0 297 12 350 84 29 39 29 133 0 173
-43 60 -77 67 -311 71 l-213 4 0 -166z"/>
<path d="M2382 2274 l3 -189 118 -3 c65 -1 175 1 243 7 105 7 130 12 159 32
87 59 100 195 27 272 -52 55 -77 60 -325 65 l-227 4 2 -188z"/>
</g>
</svg>
