<?xml version="1.0" encoding="utf-8"?>
<!-- Generator: Adobe Illustrator 16.0.4, SVG Export Plug-In . SVG Version: 6.00 Build 0)  -->
<!DOCTYPE svg PUBLIC "-//W3C//DTD SVG 1.1//EN" "http://www.w3.org/Graphics/SVG/1.1/DTD/svg11.dtd">
<svg version="1.1" id="Layer_1" xmlns="http://www.w3.org/2000/svg" xmlns:xlink="http://www.w3.org/1999/xlink" x="0px" y="0px"
	 width="64px" height="64px" viewBox="0 0 64 64" enable-background="new 0 0 64 64" xml:space="preserve">
<g>
	<path fill-rule="evenodd" clip-rule="evenodd" fill="#E1E1E1" d="M63.055,3.918c0.014,11.533-4.76,20.915-12.949,28.742
		c-2.021,1.931-4.167,3.731-6.195,5.655c-0.411,0.391-0.75,1.052-0.787,1.61c-0.292,4.326-0.469,8.66-0.779,12.985
		c-0.041,0.569-0.507,1.317-0.998,1.612c-4.548,2.73-9.15,5.371-13.721,8.062c-0.867,0.51-1.548,0.435-2.28-0.264
		c-2.62-2.5-2.629-2.486-1.547-5.985c0.718-2.32,1.461-4.634,2.101-6.977c0.117-0.429-0.048-1.136-0.354-1.45
		c-3.084-3.164-6.237-6.26-9.336-9.409c-0.543-0.553-1.012-0.595-1.717-0.368c-2.965,0.953-5.961,1.812-8.926,2.769
		c-0.895,0.288-1.53,0.128-2.174-0.535c-3.173-3.268-2.912-2.19-0.831-5.853c2.201-3.875,4.504-7.69,6.713-11.559
		c0.524-0.918,1.181-1.291,2.232-1.335c4.251-0.184,8.501-0.415,12.746-0.713c0.544-0.039,1.182-0.461,1.559-0.895
		c3.758-4.316,7.646-8.479,12.206-11.995c5.377-4.147,11.464-6.258,18.163-6.781c1.575-0.123,3.157-0.176,4.737-0.228
		c1.819-0.06,2.145,0.27,2.139,2.06C63.054,3.351,63.055,3.634,63.055,3.918z M54.551,13.181c0.02-2.073-1.596-3.7-3.666-3.69
		c-2.032,0.008-3.631,1.585-3.643,3.593c-0.013,2.077,1.604,3.707,3.666,3.697C52.934,16.77,54.532,15.19,54.551,13.181z"/>
</g>
</svg>
