<?xml version="1.0" encoding="utf-8"?>
<!-- Generator: Adobe Illustrator 21.1.0, SVG Export Plug-In . SVG Version: 6.00 Build 0)  -->
<svg version="1.1" id="Layer_1" xmlns="http://www.w3.org/2000/svg" xmlns:xlink="http://www.w3.org/1999/xlink" x="0px" y="0px"
	 viewBox="0 0 50 50" style="enable-background:new 0 0 50 50;" xml:space="preserve">
<style type="text/css">
	.st0{fill:none;stroke:#2c3841;stroke-width:1.9264;stroke-miterlimit:10;}
	.st1{fill:none;stroke:#2c3841;stroke-width:0.7706;stroke-linecap:round;stroke-miterlimit:10;}
	.st2{fill:none;stroke:#2c3841;stroke-width:1.5411;stroke-miterlimit:10;}
</style>
<g>
	<path class="st0" d="M30.6,48.9H9.5c-2.1,0-3.9-1.7-3.9-3.9V14.1c0-2.1,1.7-3.9,3.9-3.9h21.1c2.1,0,3.9,1.7,3.9,3.9V45
		C34.5,47.1,32.7,48.9,30.6,48.9z"/>
	<line class="st1" x1="10.3" y1="18.4" x2="29.8" y2="18.4"/>
	<line class="st1" x1="10.3" y1="23.8" x2="29.8" y2="23.8"/>
	<line class="st1" x1="10.3" y1="29.2" x2="29.8" y2="29.2"/>
	<line class="st1" x1="10.3" y1="34.6" x2="29.8" y2="34.6"/>
	<path class="st2" d="M10.3,10.2v-1c0-2.1,1.7-3.9,3.9-3.9h21.1c2.1,0,3.9,1.7,3.9,3.9v30.9c0,2.1-1.7,3.9-3.9,3.9"/>
	<path class="st2" d="M14.6,6v-1c0-2.1,1.7-3.9,3.9-3.9h21.1c2.1,0,3.9,1.7,3.9,3.9v30.9c0,2.1-1.7,3.9-3.9,3.9"/>
</g>
</svg>
