<?xml version="1.0" encoding="utf-8"?>
<!-- Generator: Adobe Illustrator 21.1.0, SVG Export Plug-In . SVG Version: 6.00 Build 0)  -->
<svg version="1.1" id="Layer_1" xmlns="http://www.w3.org/2000/svg" xmlns:xlink="http://www.w3.org/1999/xlink" x="0px" y="0px"
	 viewBox="0 0 50 50" style="enable-background:new 0 0 50 50;" xml:space="preserve">
<path d="M40.5,27c0.1-0.7,0.1-1.3,0.1-2s-0.1-1.4-0.1-2l4.4-3.4c0.4-0.3,0.5-0.9,0.3-1.3L41,11c-0.3-0.5-0.8-0.6-1.3-0.5l-5.2,2.1
	c-1.1-0.8-2.3-1.5-3.5-2L30.2,5c-0.1-0.5-0.5-0.9-1-0.9h-8.3c-0.5,0-1,0.4-1,0.9L19,10.6c-1.3,0.5-2.4,1.2-3.5,2l-5.2-2.1
	c-0.5-0.2-1,0-1.3,0.5l-4.2,7.2c-0.3,0.5-0.1,1,0.3,1.3L9.5,23c-0.1,0.7-0.1,1.4-0.1,2s0.1,1.4,0.1,2l-4.4,3.4
	c-0.4,0.3-0.5,0.9-0.3,1.3L9,39c0.3,0.5,0.8,0.6,1.3,0.5l5.2-2.1c1.1,0.8,2.3,1.5,3.5,2l0.8,5.5c0.1,0.5,0.5,0.9,1,0.9h8.3
	c0.5,0,1-0.4,1-0.9l0.8-5.5c1.3-0.5,2.4-1.2,3.5-2l5.2,2.1c0.5,0.2,1,0,1.3-0.5l4.2-7.2c0.3-0.5,0.1-1-0.3-1.3L40.5,27z M25,32.3
	c-4,0-7.3-3.3-7.3-7.3s3.3-7.3,7.3-7.3s7.3,3.3,7.3,7.3S29,32.3,25,32.3z"/>
</svg>
